<?xml version="1.0" encoding="UTF-8"?>
<svg width="47px" height="50px" viewBox="0 0 47 50" version="1.1" xmlns="http://www.w3.org/2000/svg" xmlns:xlink="http://www.w3.org/1999/xlink">
    <!-- Generator: Sketch 55.2 (78181) - https://sketchapp.com -->
    <title>cv</title>
    <desc>Created with Sketch.</desc>
    <g id="cv" stroke="none" stroke-width="1" fill="none" fill-rule="evenodd">
        <path d="M5,1 L41,1 C43.209139,1 45,2.790861 45,5 L45,45 C45,47.209139 43.209139,49 41,49 L5,49 C2.790861,49 1,47.209139 1,45 L1,5 C1,2.790861 2.790861,1 5,1 Z M21.7827148,38.605957 L17.8276367,38.605957 C17.7397457,39.7749082 17.3947784,40.6384249 16.7927246,41.1965332 C16.1906708,41.7546415 15.2788147,42.0336914 14.0571289,42.0336914 C12.7036065,42.0336914 11.7126496,41.5546923 11.0842285,40.5966797 C10.4558074,39.6386671 10.1416016,38.122569 10.1416016,36.0483398 L10.1416016,34.5981445 C10.1591798,32.6118065 10.4953581,31.146245 11.1501465,30.201416 C11.8049349,29.2565871 12.7914973,28.7841797 14.1098633,28.7841797 C15.32276,28.7841797 16.2258271,29.0632296 16.8190918,29.6213379 C17.4123565,30.1794461 17.7573237,31.0781188 17.8540039,32.3173828 L21.809082,32.3173828 C21.5981435,30.1728408 20.8159247,28.5073302 19.4624023,27.3208008 C18.10888,26.1342714 16.3247181,25.5410156 14.1098633,25.5410156 C12.5102459,25.5410156 11.1062072,25.9167443 9.89770508,26.6682129 C8.68920294,27.4196815 7.75976888,28.4985281 7.109375,29.9047852 C6.45898112,31.3110422 6.13378906,32.9370025 6.13378906,34.7827148 L6.13378906,35.9560547 C6.13378906,38.8476707 6.83910427,41.1218179 8.24975586,42.7785645 C9.66040744,44.435311 11.5961791,45.2636719 14.0571289,45.2636719 C16.3071402,45.2636719 18.1198662,44.6704161 19.4953613,43.4838867 C20.8708565,42.2973573 21.6333,40.671397 21.7827148,38.605957 Z M31.4726563,40.2407227 L27.1484375,25.8046875 L22.7583008,25.8046875 L29.4160156,45 L33.5424805,45 L40.2265625,25.8046875 L35.8232422,25.8046875 L31.4726563,40.2407227 Z M6.33333333,7 L6.33333333,9 L39.6666667,9 L39.6666667,7 L6.33333333,7 Z M6.33333333,13 L6.33333333,15 L39.6666667,15 L39.6666667,13 L6.33333333,13 Z M7,19 L7,21 L40,21 L40,19 L7,19 Z" id="Combined-Shape" fill="#FFFFFF"></path>
    </g>
</svg>