<?xml version="1.0" encoding="UTF-8"?>
<svg width="842px" height="128px" viewBox="0 0 842 128" version="1.1" xmlns="http://www.w3.org/2000/svg" xmlns:xlink="http://www.w3.org/1999/xlink">
    <!-- Generator: Sketch 55.2 (78181) - https://sketchapp.com -->
    <title>Artboard</title>
    <desc>Created with Sketch.</desc>
    <defs>
        <linearGradient x1="100%" y1="50%" x2="0.0422297297%" y2="50%" id="linearGradient-1">
            <stop stop-color="#6BB344" offset="0%"></stop>
            <stop stop-color="#1581C4" offset="99.9577703%"></stop>
        </linearGradient>
    </defs>
    <g id="Artboard" stroke="none" stroke-width="1" fill="none" fill-rule="evenodd">
        <rect fill="#FFFFFF" x="0" y="0" width="842" height="128"></rect>
        <path d="M2,115.5 L841,115.5" id="Line" stroke="#979797" stroke-linecap="square"></path>
        <text id="2011" font-family="Roboto-Bold, Roboto" font-size="10" font-weight="bold" fill="#000000">
            <tspan x="1.05078125" y="126">2011</tspan>
        </text>
        <text id="2012" font-family="Roboto-Regular, Roboto" font-size="10" font-weight="normal" fill="#000000">
            <tspan x="62.5390625" y="126">2012</tspan>
        </text>
        <text id="2013" font-family="Roboto-Bold, Roboto" font-size="10" font-weight="bold" fill="#000000">
            <tspan x="122.050781" y="126">2013</tspan>
        </text>
        <text id="2014" font-family="Roboto-Regular, Roboto" font-size="10" font-weight="normal" fill="#000000">
            <tspan x="180.539062" y="126">2014</tspan>
        </text>
        <text id="2015" font-family="Roboto-Bold, Roboto" font-size="10" font-weight="bold" fill="#000000">
            <tspan x="242.050781" y="126">2015</tspan>
        </text>
        <text id="2016" font-family="Roboto-Regular, Roboto" font-size="10" font-weight="normal" fill="#000000">
            <tspan x="301.539062" y="126">2016</tspan>
        </text>
        <text id="2017" font-family="Roboto-Bold, Roboto" font-size="10" font-weight="bold" fill="#000000">
            <tspan x="362.050781" y="126">2017</tspan>
        </text>
        <text id="2018" font-family="Roboto-Regular, Roboto" font-size="10" font-weight="normal" fill="#000000">
            <tspan x="423.539062" y="126">2018</tspan>
        </text>
        <text id="2019" font-family="Roboto-Bold, Roboto" font-size="10" font-weight="bold" fill="#000000">
            <tspan x="483.050781" y="126">2019</tspan>
        </text>
        <text id="2020" font-family="Roboto-Regular, Roboto" font-size="10" font-weight="normal" fill="#000000">
            <tspan x="543.539062" y="126">2020</tspan>
        </text>
        <text id="2021" font-family="Roboto-Bold, Roboto" font-size="10" font-weight="bold" fill="#000000">
            <tspan x="603.050781" y="126">2021</tspan>
        </text>
        <text id="2022" font-family="Roboto-Regular, Roboto" font-size="10" font-weight="normal" fill="#000000">
            <tspan x="663.539062" y="126">2022</tspan>
        </text>
        <text id="2023" font-family="Roboto-Bold, Roboto" font-size="10" font-weight="bold" fill="#000000">
            <tspan x="723.050781" y="126">2023</tspan>
        </text>
        <text id="2024" font-family="Roboto-Regular, Roboto" font-size="10" font-weight="normal" fill="#000000">
            <tspan x="783.539062" y="126">2024</tspan>
        </text>
        <path d="M1.5,115 L1.5,110" id="Line-2" stroke="#979797" stroke-linecap="square"></path>
        <path d="M61.5,115 L61.5,110" id="Line-2-Copy" stroke="#979797" stroke-linecap="square"></path>
        <path d="M121.5,115 L121.5,110" id="Line-2-Copy-2" stroke="#979797" stroke-linecap="square"></path>
        <path d="M181.5,115 L181.5,110" id="Line-2-Copy-4" stroke="#979797" stroke-linecap="square"></path>
        <path d="M241.5,115 L241.5,110" id="Line-2-Copy-3" stroke="#979797" stroke-linecap="square"></path>
        <path d="M301.5,115 L301.5,110" id="Line-2-Copy-8" stroke="#979797" stroke-linecap="square"></path>
        <path d="M361.5,115 L361.5,110" id="Line-2-Copy-7" stroke="#979797" stroke-linecap="square"></path>
        <path d="M421.5,115 L421.5,110" id="Line-2-Copy-6" stroke="#979797" stroke-linecap="square"></path>
        <path d="M481.5,115 L481.5,110" id="Line-2-Copy-5" stroke="#979797" stroke-linecap="square"></path>
        <path d="M541.5,115 L541.5,110" id="Line-2-Copy-12" stroke="#979797" stroke-linecap="square"></path>
        <path d="M601.5,115 L601.5,110" id="Line-2-Copy-11" stroke="#979797" stroke-linecap="square"></path>
        <path d="M661.5,115 L661.5,110" id="Line-2-Copy-10" stroke="#979797" stroke-linecap="square"></path>
        <path d="M721.5,115 L721.5,110" id="Line-2-Copy-9" stroke="#979797" stroke-linecap="square"></path>
        <path d="M781.5,115 L781.5,110" id="Line-2-Copy-13" stroke="#979797" stroke-linecap="square"></path>
        <path d="M841.5,115 L841.5,110" id="Line-2-Copy-14" stroke="#979797" stroke-linecap="square"></path>
        <rect id="Rectangle" fill="#D79209" x="37" y="41" width="24" height="10"></rect>
        <rect id="Rectangle-Copy" fill="#D79209" x="62" y="41" width="59" height="10"></rect>
        <rect id="Rectangle-Copy-3" fill="#D79209" x="122" y="41" width="59" height="10"></rect>
        <rect id="Rectangle-Copy-2" fill="#D79209" x="182" y="41" width="17" height="10"></rect>
        <rect id="Rectangle-Copy-25" fill="#D79209" x="229" y="41" width="12" height="10"></rect>
        <rect id="Rectangle-Copy-8" fill="#2B51FF" x="182" y="57" width="17" height="10"></rect>
        <rect id="Rectangle-Copy-27" fill="#2B51FF" x="229" y="57" width="12" height="10"></rect>
        <rect id="Rectangle-Copy-5" fill="#D79209" x="242" y="41" width="59" height="10"></rect>
        <rect id="Rectangle-Copy-20" fill="#D79209" x="362" y="41" width="30" height="10"></rect>
        <rect id="Rectangle-Copy-12" fill="#D14CF2" x="451" y="41" width="30" height="10"></rect>
        <rect id="Rectangle-Copy-11" fill="#D14CF2" x="482" y="41" width="59" height="10"></rect>
        <rect id="Rectangle-Copy-16" fill="#D14CF2" x="542" y="41" width="34" height="10"></rect>
        <rect id="Rectangle-Copy-13" fill="#0091FF" x="577" y="41" width="24" height="10"></rect>
        <rect id="Rectangle-Copy-15" fill-opacity="0.45" fill="#0091FF" x="602" y="41" width="59" height="10"></rect>
        <rect id="Rectangle-Copy-14" fill-opacity="0.45" fill="#0091FF" x="662" y="41" width="59" height="10"></rect>
        <rect id="Rectangle-Copy-18" fill-opacity="0.45" fill="#0091FF" x="722" y="41" width="59" height="10"></rect>
        <rect id="Rectangle-Copy-17" fill-opacity="0.45" fill="#0091FF" x="782" y="41" width="30" height="10"></rect>
        <rect id="Rectangle-Copy-10" fill="#54C432" x="393" y="80" width="59" height="10"></rect>
        <rect id="Rectangle-Copy-9" fill="#2B51FF" x="122" y="57" width="59" height="10"></rect>
        <rect id="Rectangle-Copy-7" fill="#2B51FF" x="242" y="57" width="59" height="10"></rect>
        <rect id="Rectangle-Copy-6" fill="#2B51FF" x="302" y="57" width="17" height="10"></rect>
        <rect id="Rectangle-Copy-29" fill="#2B51FF" x="349" y="57" width="12" height="10"></rect>
        <rect id="Rectangle-Copy-19" fill="#2B51FF" x="362" y="57" width="30" height="10"></rect>
        <text id="University-of-Calgar" font-family="Roboto-Bold, Roboto" font-size="10" font-weight="bold" fill="#000000">
            <tspan x="37" y="10">University of Calgary</tspan>
        </text>
        <text id="BSc-(Hons.),-Compute" font-family="Roboto-Regular, Roboto" font-size="8" font-weight="normal" fill="#D79209">
            <tspan x="37" y="22">BSc (Hons.), Computer Science</tspan>
        </text>
        <text id="University-of-Waterl" font-family="Roboto-Bold, Roboto" font-size="10" font-weight="bold" fill="#000000">
            <tspan x="451" y="10">University of Waterloo</tspan>
        </text>
        <text id="MMath,-Computer-Scie" font-family="Roboto-Regular, Roboto" font-size="8" font-weight="normal" fill="#D14CF2">
            <tspan x="451" y="24">MMath, Computer Science</tspan>
        </text>
        <text id="PhD,-Computer-Scienc" font-family="Roboto-Regular, Roboto" font-size="8" font-weight="normal" fill="#0091FF">
            <tspan x="577" y="34">PhD, Computer Science (HCI)</tspan>
        </text>
        <text id="BComm,-Business-Tech" font-family="Roboto-Regular, Roboto" font-size="8" font-weight="normal" fill="#2B51FF">
            <tspan x="37" y="34">BComm, Business Technology Management</tspan>
        </text>
        <text id="Deloitte" font-family="Roboto-Bold, Roboto" font-size="10" font-weight="bold" fill="#000000">
            <tspan x="392" y="100">Deloitte</tspan>
        </text>
        <rect id="Rectangle-Copy-23" fill="#FE3433" x="319" y="80" width="30" height="10"></rect>
        <text id="Critical-Mass" font-family="Roboto-Bold, Roboto" font-size="10" font-weight="bold" fill="#000000">
            <tspan x="319" y="100">Critical Mass</tspan>
        </text>
        <rect id="Rectangle-Copy-24" fill="#5A2783" x="199" y="80" width="30" height="10"></rect>
        <rect id="Rectangle-Copy-26" fill-opacity="0.45" fill="#D79209" x="200" y="41" width="28" height="10"></rect>
        <rect id="Rectangle-Copy-33" fill="#D79209" x="302" y="41" width="17" height="10"></rect>
        <rect id="Rectangle-Copy-32" fill="#D79209" x="349" y="41" width="12" height="10"></rect>
        <rect id="Rectangle-Copy-31" fill-opacity="0.45" fill="#D79209" x="320" y="41" width="28" height="10"></rect>
        <rect id="Rectangle-Copy-28" fill-opacity="0.45" fill="#2B51FF" x="200" y="57" width="28" height="10"></rect>
        <rect id="Rectangle-Copy-30" fill-opacity="0.45" fill="#2B51FF" x="320" y="57" width="28" height="10"></rect>
        <text id="SMART-Technologies" font-family="Roboto-Bold, Roboto" font-size="10" font-weight="bold" fill="#000000">
            <tspan x="199" y="100">SMART Technologies</tspan>
        </text>
        <rect id="Rectangle-Copy-21" fill="url(#linearGradient-1)" x="542" y="78" width="34" height="10"></rect>
        <rect id="Rectangle-Copy-22" fill="#AB82C3" x="507" y="78" width="34" height="10"></rect>
        <text id="Autodesk-Research" font-family="Roboto-Bold, Roboto" font-size="10" font-weight="bold" fill="#000000">
            <tspan x="542" y="98">Autodesk Research</tspan>
        </text>
        <text id="NYU" font-family="Roboto-Bold, Roboto" font-size="10" font-weight="bold" fill="#000000">
            <tspan x="507" y="98">NYU</tspan>
        </text>
        <g id="noun_Graduate-Cap_154738" transform="translate(377.000000, 15.000000)" fill="#D79209" fill-rule="nonzero">
            <polygon id="Path" points="15 3.4356895 7.40639004 0 0 3.4356895 7.61053942 7"></polygon>
            <path d="M15.9958429,7.46546275 L15.5702604,4.22051668 C15.5317769,3.92649444 15.4683922,3.92649444 15.4299087,4.22051668 L15.0043262,7.46546275 C14.9658426,7.75948499 15.1884434,8 15.49933,8 C15.8102165,8 16.0335719,7.75948499 15.9958429,7.46546275 Z" id="Path"></path>
            <polygon id="Path" points="2 5 2 7.28565624 7.63365372 10 13 7.42127184 13 5.09523568 7.68177903 7.62240959"></polygon>
        </g>
        <g id="noun_Graduate-Cap_154738-Copy" transform="translate(377.000000, 26.000000)" fill="#2B51FF" fill-rule="nonzero">
            <polygon id="Path" points="15 3.4356895 7.40639004 0 0 3.4356895 7.61053942 7"></polygon>
            <path d="M15.9958429,7.46546275 L15.5702604,4.22051668 C15.5317769,3.92649444 15.4683922,3.92649444 15.4299087,4.22051668 L15.0043262,7.46546275 C14.9658426,7.75948499 15.1884434,8 15.49933,8 C15.8102165,8 16.0335719,7.75948499 15.9958429,7.46546275 Z" id="Path"></path>
            <polygon id="Path" points="2 5 2 7.28565624 7.63365372 10 13 7.42127184 13 5.09523568 7.68177903 7.62240959"></polygon>
        </g>
        <g id="noun_Graduate-Cap_154738-Copy-2" transform="translate(560.000000, 16.000000)" fill="#D14CF2" fill-rule="nonzero">
            <polygon id="Path" points="15 3.4356895 7.40639004 0 0 3.4356895 7.61053942 7"></polygon>
            <path d="M15.9958429,7.46546275 L15.5702604,4.22051668 C15.5317769,3.92649444 15.4683922,3.92649444 15.4299087,4.22051668 L15.0043262,7.46546275 C14.9658426,7.75948499 15.1884434,8 15.49933,8 C15.8102165,8 16.0335719,7.75948499 15.9958429,7.46546275 Z" id="Path"></path>
            <polygon id="Path" points="2 5 2 7.28565624 7.63365372 10 13 7.42127184 13 5.09523568 7.68177903 7.62240959"></polygon>
        </g>
        <g id="noun_Graduate-Cap_154738-Copy-3" transform="translate(796.000000, 26.000000)" fill="#0091FF" fill-opacity="0.45" fill-rule="nonzero">
            <polygon id="Path" points="15 3.4356895 7.40639004 0 0 3.4356895 7.61053942 7"></polygon>
            <path d="M15.9958429,7.46546275 L15.5702604,4.22051668 C15.5317769,3.92649444 15.4683922,3.92649444 15.4299087,4.22051668 L15.0043262,7.46546275 C14.9658426,7.75948499 15.1884434,8 15.49933,8 C15.8102165,8 16.0335719,7.75948499 15.9958429,7.46546275 Z" id="Path"></path>
            <polygon id="Path" points="2 5 2 7.28565624 7.63365372 10 13 7.42127184 13 5.09523568 7.68177903 7.62240959"></polygon>
        </g>
    </g>
</svg>